<svg width="600" height="600" xmlns="http://www.w3.org/2000/svg" xmlns:xlink="http://www.w3.org/1999/xlink" preserveAspectRatio="none">
 <defs>
  <g id="Layer0_0_FILL">
   <path id="svg_1" d="m218.45,87.3q-7.15,1.8 -13.55,7.05q23.65,12.05 55.45,14.25q17.95,1 33.4,-1.3q-19.55,0.9 -35.4,-1.4q-7.85,-1.15 -14.15,-2.9q-7.4,-2.05 -13.4,-5.2q-4.45,-2.45 -6.95,-4.45q-3.6,-2.8 -5.4,-6.05m99.45,0.65q-3.55,0.45 -5.8,1.05q2.25,3.1 7.05,10.6q4.35,6.9 7.1,10.5q-1.2,-4.35 -4,-11.15q-3.45,-8.4 -4.35,-11m28.6,41.4q-6.3,-2.35 -12.75,-1.9q-5.1,0.15 -12.35,2.8q-10.6,3.7 -12.1,4.1q-12.5,3.6 -25.5,3.35q-13.2,-0.3 -25.3,-4.45q-1.55,-0.45 -4.25,-1.6q-2.9,-1.2 -4.25,-1.65q1.4,1.4 3.6,2.75q0.4,0.2 3.9,2.2q8.3,4.6 16.95,6.45q9.35,2.05 18.05,0.65q-16.65,4.15 -32.25,3.2q-17.35,-1.05 -31.15,-8.45q-10.3,-5.45 -19.25,-8.05q-10.8,-3.15 -20.6,-2.4q-7.35,0.6 -13.95,4.15q-6.65,3.6 -11.15,9.4q-3.35,4.05 -6,9.65q-2.05,4.25 -4.25,10.6q0.2,-2.35 1,-5.3q0.45,-1.7 1.65,-5.2q3.15,-8.9 8.2,-16q5.5,-7.8 12.75,-12.65q6.55,-4.55 14.85,-6.65q7.8,-2.05 16.3,-1.75q4.4,0.15 6.05,0.05q-11.4,-1.7 -22.15,-1q-2.55,0.3 -3.8,0.35q-2.2,0.2 -3.85,0.1q-5.25,3.55 -9.9,2.6l2.3,1.3q-4.95,0.4 -9.4,2.2q-4.65,1.8 -8.25,4.9q-3.5,3.05 -5.65,7.6q-2,4.25 -2.5,9.15q-0.55,5.15 -1.3,8.65q-1,4.65 -2.65,8.25q-2.25,4.95 -5.9,6.65l3.3,-0.5q-7.25,18.95 -11.95,40.15q-7.1,31.85 -6.2,61.25q0.55,23.45 5.45,54.5q-3.25,-1.85 -6.6,-1.85q-3.9,-0.1 -6.35,2.3q-2.8,2.8 -3.85,7.45q-0.75,3.25 -0.8,8.5q-0.15,8.95 3.5,18.95q2.8,7.55 8.55,17.3q1.9,3.4 5.85,10.15q3.15,6.05 3.6,11.05l1.15,1q0.1,11 1.05,23.95q1,11.6 2.15,18.4q1.75,10.15 4.8,17.9q2.6,6 8.75,16.5q0.4,3.2 1.45,9.7q0.75,5.7 0.25,9.8q-0.55,5.7 -3.45,8.05q-0.95,0.75 -0.75,2.1q0.2,1.1 1.05,2.05q18.15,23.3 37.75,46.1q13.4,15.35 21.95,24.45q12.3,13.1 23.45,22.85q6.25,5.25 9.35,7.45q5.5,3.8 10.5,5.5q3.35,1.1 7.3,-0.2q2.5,-0.85 6.65,-3.3q6.5,-4.05 14.05,-10q4.35,-3.45 13.3,-11.05q20.7,-18 44.45,-41.15q16.95,-16.5 42.9,-42.85q2.25,-2.05 1.8,-4.2q-1.8,-8.05 -2.9,-14.5q-0.9,-5.8 -1.1,-8.5q-0.4,-4.75 0.2,-8.45q9.4,-15.4 14.2,-30.05q2.4,1.2 5,0.25q2.5,-0.9 3.8,-3.25q2.2,-3.95 3.1,-9.75q0.2,-1.05 1,-10.25q0.45,-3.15 1.9,-6.95q0.65,-1.7 2.9,-6.65q4.95,-10.15 7.4,-15.2q4.35,-9.05 6.8,-15.55q2.95,-7.85 4.3,-14.25q1.7,-7.9 1.3,-14.9q-0.25,-3.8 -1.6,-6.8q-1.65,-3.45 -4.6,-5.05q-6.25,-3.25 -15.95,0.65q3.35,-10.65 5.45,-23.5q3.4,-21.1 1.75,-40.7q-1.8,-21.4 -9.55,-39.55l1.8,0.5q2.45,-23.75 -0.8,-41.5q-1.55,-7.8 -3.85,-12.95q-3.1,-6.8 -8.15,-10.55q-2.9,-1.75 -6.5,-2.2q-3.55,-0.45 -6.9,0.45q-6,1.65 -9.65,9.3q-6.2,-19.25 -17.9,-29.75q-4.9,-4.45 -11,-6.7m-15.4,42.05q5.3,-0.2 10.45,2q5,2.05 8.9,5.9q5.35,5.05 8.9,13.5l0.7,-2.7q9.15,6.45 14.85,16.05q5.9,9.95 6.45,20.8q0.45,3.85 -0.55,11q-1.05,7.4 -0.85,10.9q0.35,7.75 3.4,17.75q1.75,5.75 5.8,17.15q9.35,26.25 10.4,50.8l0,0.5q0.1375,1.80625 0.4,5q0.2,3.2 0,5.5q-0.05,1.35 -0.2,4.05q-0.1,2.35 0.25,4q0.55,-8.65 4.1,-17.45q0.35,-1.1 1.65,-1.9q0.75,-0.45 2.3,-1.25q4.25,-2.15 7,-3.05q4.05,-1.3 7.55,-1.1q1.7,0 3.2,0.95q1.5,0.95 2.3,2.45q1.15,2.2 1.4,5.25q0.15,1.8 0.05,5.5q-0.4,6.25 -2.3,13.15q-1.6,5.7 -4.4,12.65q3.5,-10.15 5,-21.3q0.3,-3.3 0.35,-4.85q0,-2.75 -0.6,-4.8q-0.35,-1.3 -1.3,-2.2q-1.05,-0.95 -2.3,-1q-2.2,-0.25 -4.45,1.1q-1.55,0.95 -3.6,3.05q-5.25,5.75 -10.05,14.4q-0.9,1.1 -0.15,2.45q0.7,1.3 2.05,1.1q1,-0.1 1.8,-1.2q0.4,-0.65 1.15,-1.95q3.8,-6.1 5.05,-7.8q3.15,-4.25 6.5,-6.55q0.5,-0.65 1,-0.1q0.45,0.55 0.35,1.15q0.3,4.05 -0.5,9.1q-0.5,3 -1.85,8.95q-0.7,2.55 -2.1,7.65q-1.3,4.35 -2.8,7.45l0.05,0.4q-2.1,5 -3.05,6.85q-1.9,3.8 -4.05,6.3q-0.65,0.7 -0.9,1.05q-0.55,0.65 -0.45,1.3q-0.15,1.1 0.9,1.85q1.05,0.7 2.05,0.2q0.75,-0.35 1.45,-1.2q0.4,-0.45 1.15,-1.45q-3.6,7.25 -4.9,10.25q-2.5,5.8 -3.55,10.7q-0.4,3.25 -0.9,9.8q-0.7,5.7 -2.65,9.3q-0.5,1.1 -1.6,1.5q-1.05,0.35 -2.15,-0.2q4.2,-16.3 3.95,-28.5q0.1,-1.45 -2.1,-2.05q-1.05,0.2 -1.7,0.9q-0.65,0.7 -0.55,1.8q-0.05,15.6 -5.55,31.75q-4.95,14.65 -14.1,29.1q-8.1,12.8 -21.05,27.65q-4.35,5.05 -23.6,25.65q-11.25,13.1 -19.95,21q-11.7,10.7 -23.55,16.6q-8.8,4.45 -18.1,6.15q-9.8,1.8 -19.05,0.45q-11.95,-1.2 -25.45,-10.45q-7.45,-5.15 -15.2,-12.4q-6.2,-5.8 -13.75,-14.05q-23.45,-26.7 -42.15,-59q-3.7,-6.8 -4.4,-8.1q-2.4,-4.65 -3.55,-8.55q-2.35,-7.55 -4.05,-19.95q-0.05,-0.45 -1.05,-8.9q-0.65,-5.35 -0.55,-8.9q-1.1,-18.75 -0.15,-46.75q0,-1.25 -1.2,-1.8q-1.05,-0.55 -2.35,-0.25l0,0.4q-0.6,0.65 -0.8,1.7q0,0.1 -0.15,1.95q-0.05,2.6 -0.25,7.85q-0.1,4.7 -0.15,7.85q-2.9,-5.75 -5.15,-9.1q1.4,0.55 2.65,-0.35q1.3,-0.95 0.75,-2.45q-6.8,-8.85 -9.5,-23.9q-0.5,-3.45 -0.55,-5.3q-0.1,-2.9 0.65,-5.2q1.35,-0.3 2.55,0.85q0.7,0.7 1.7,2.35q0.55,0.85 1.25,3q0.85,1.8 2.3,2.1q1.45,-0.65 2.15,-1.7q0.5,3.25 1.55,9.6q0.8,5.55 1,9.7q0,-4.25 -0.6,-18.6q-0.5,-11.55 -0.15,-18.6q-0.25,-7.5 0.9,-19.45q0.65,-5.45 1.2,-8.1q0.95,-4.45 2.65,-7.7q1.55,-2.85 1.9,-7.05q0.1,-1.35 0.15,-7.4q-1,-17.35 -1.25,-26.05q-0.55,-15.25 1.3,-26q1.35,-8.15 4.3,-14.7q3.35,-7.55 8.65,-12.6q4.55,-4.45 11.4,-7.55l-0.8,2.15q2.15,-4.4 7.4,-6.9q4.2,-2 10,-2.55q8.8,-0.65 20.3,2.35q13.85,3.9 22.65,5.6q12.6,2.35 23.2,2.2q7.6,-0.2 14.25,-2.2q7.3,-2.15 12.85,-6.45q-1.15,1.95 -2,3.45q7.75,1 13.9,1.15q7.5,0.15 13.95,-1.05q8.95,-1.7 12.5,-6.55q2.3,-3.15 6.15,-4.95q3.6,-1.7 7.7,-1.9m-207.65,150.3q1.3,-0.55 2.65,-0.35q3.9,0.6 6.95,3.05q1.75,8.55 2.45,15.1q-1.05,-4.35 -4.35,-7.35q-1.55,-1.4 -3.6,-1.65q-2.2,-0.3 -3.85,0.9q-2.3,1.65 -2.6,6.4q-0.2,5.2 1.15,11.45q0.9,4.2 3.15,11.05q-3.3,-7.45 -4.75,-13.05q-2,-7.3 -1.65,-13.7q0.3,-3.55 0.65,-5.25q0.55,-2.9 1.8,-4.9q0.75,-1.15 2,-1.7m115.7,271q-4.15,-3.6 -11.65,-10.8q-10.4,-10.25 -21.85,-23q-9.05,-10 -20.8,-23.95q-13.35,-15.85 -28.3,-34.9q1.9,-2.6 2.85,-5.6q0.85,-3.25 0.9,-7.25q0.05,-2.9 -0.3,-7.35q3.75,6.35 8.85,13.65q3.65,5.2 9.55,13.2q13.7,18.1 26.9,31.05q7.5,7.3 14.05,12.35q7.95,6.15 15.8,10q12.25,6.05 28.25,5.5q16.15,-0.65 32,-9.55q13.8,-7.85 27.7,-22q3.6,-3.6 9.6,-10.35q6.65,-7.55 9.5,-10.5q11.6,-12.25 18.5,-20.2q9.85,-11.4 16.9,-21.65q0.2,4.65 1.25,10.7q0.15,0.9 2,10.6q0.1,0.7 0.65,2.35q0.25,1.4 -0.7,2.05q-43.45,44.55 -77.4,75.35q-14.5,12.85 -23.8,20.1q-6.15,4.65 -8.45,6.2q-4.85,3.35 -9.1,5.15q-2.25,1.1 -5.2,0.35q-1.9,-0.55 -4.9,-2.15q-6.1,-3.65 -12.8,-9.35m-10.55,-276.9q2.9,0.45 4.05,0.45q2.3,0 3.85,-1q-0.75,-1.85 -2,-2.65q-3,-2.25 -7.15,-4.1q-2.9,-1.3 -7.7,-2.9q0.6,0 2,0.1q1.2,0.1 1.95,-0.35q-7.05,-4.45 -14.95,-6.35q-8.15,-2 -16.1,-1.05q-1.85,0.15 -4.55,0.75q-4.35,1 -4.45,1l-0.5,-0.8q-2.75,0.65 -4.75,1.3q-7.3,2.6 -12.45,9.7q-4.6,6.25 -6.5,14.55q7.4,-7.5 15.2,-10.95q6.65,-3.15 14.5,-4.15q7.3,-0.95 15.1,0q4.4,0.5 9.65,1.9q1.95,0.5 7.35,2.45q4.55,1.6 7.45,2.1m3.25,84.45q7.1,1.95 12.55,5.2q-6.45,-5.9 -12.55,-5.2m30.2,11.5q-1.65,0.5 -3.1,0.4q-3,-0.1 -6.25,-1.75q-2.45,-1.15 -5.5,-3.5q2.45,2.9 5.2,4.5q3.25,1.9 6.55,1.75q2.75,-0.05 6.05,-2.45q-1.95,0.8 -2.95,1.05m38,-19.85q-0.3,-5.3 -6.1,-10.4q2.25,2.9 3.3,5.15q1.4,3.1 0.95,5.95q-0.55,4.5 -5.95,8.3q3.2,-1.25 5.3,-3.35q2.45,-2.55 2.5,-5.65m-75.6,-5.25q0.95,-2.1 3.2,-5.15q-6.3,5.8 -5.95,11.2q0.65,5.1 7.9,8.4q-2.55,-1.9 -4,-3.65q-1.85,-2.35 -2.15,-4.85q-0.4,-2.85 1,-5.95m111,-76.2q8.35,1.05 16.05,4.95q7.55,3.8 13.6,9.8q-1.65,-6.4 -4.9,-11.65q-3.5,-5.7 -8.5,-9.2q-5.35,-3.8 -12.85,-4.75l1.9,1.5q-9.9,-3.4 -20.8,-2.25q-10.7,1.05 -20.1,6.2l-2.8,1.85l4.55,-0.2q-7.45,2.5 -11.3,4.55q-2.35,1.25 -3.4,2q-1.8,1.25 -2.75,2.75q0.8,0.7 1.1,0.9q0.7,0.45 1.35,0.4q3.85,0.25 8.6,-1q2.35,-0.6 8.3,-2.75q16.85,-5.45 31.95,-3.1m67.65,58.8q-0.9,-0.15 -1.55,0.4q-0.85,0.5 -0.85,1.7q0,1.1 0.65,1.9q1.95,2.9 2.65,6.15q0.7,3.45 -0.2,6.6q-0.15,0.65 -0.8,2.05q-0.65,1.25 -0.8,1.95q-0.1,1.5 1.45,2.1q1.55,0.65 2.45,-0.65q3.1,-4.7 2.5,-10.85q-0.55,-5.85 -4.1,-10.5q-0.55,-0.65 -1.4,-0.85m-21.45,-230.5q4.4,-3.55 9.85,-8.9q-2.3,-2.45 -6.65,-4.6q-4.95,-2.15 -7.3,-3.45q-8,-4.25 -13,-9.35q0.3,1.75 1.4,3.85q0.05,0.1 2.05,3.5q5.8,9.5 13.65,18.95z" fill="#000000"/>
   <path id="svg_2" d="m178.55,518.75q10.8,12.95 19.8,22.65q10.95,11.8 21.35,21.2q7.45,6.65 13.6,11.2q7.6,5.65 14.9,9.4q12.85,6.4 22.25,3.9q6.45,-1.7 13.45,-5.55q5.15,-2.9 12.3,-7.95q10.85,-7.85 22.65,-18.5q8.9,-8.1 21.05,-20.3q20.15,-20.55 39.95,-44.15l1,2q-1.85,-9.7 -2,-10.6q-1.05,-6.05 -1.25,-10.7q-7.05,10.25 -16.9,21.65q-6.9,7.95 -18.5,20.2q-2.85,2.95 -9.5,10.5q-6,6.75 -9.6,10.35q-13.9,14.15 -27.7,22q-15.85,8.9 -32,9.55q-16,0.55 -28.25,-5.5q-7.85,-3.85 -15.8,-10q-6.55,-5.05 -14.05,-12.35q-13.2,-12.95 -26.9,-31.05q-5.9,-8 -9.55,-13.2q-5.1,-7.3 -8.85,-13.65q0.35,4.45 0.3,7.35q-0.05,4 -0.9,7.25q9.65,12.85 19.15,24.3m7.1,-339q-5.8,0.55 -10,2.55q-5.25,2.5 -7.4,6.9l0.8,-2.15q-6.85,3.1 -11.4,7.55q-5.3,5.05 -8.65,12.6q-2.95,6.55 -4.3,14.7q-1.85,10.75 -1.3,26q0.25,8.7 1.25,26.05q-0.05,6.05 -0.15,7.4q-0.35,4.2 -1.9,7.05q-1.7,3.25 -2.65,7.7q-0.55,2.65 -1.2,8.1q-1.15,11.95 -0.9,19.45q-0.35,7.05 0.15,18.6q0.6,14.35 0.6,18.6l0,0.65q1.3,-0.3 2.35,0.25q1.2,0.55 1.2,1.8q-0.95,28 0.15,46.75q0.25,1.5 0.55,5.95q0.2,3.75 0.8,5.95q2.4,10.25 5.75,17.95q4.05,9.35 9.85,15.95q4.3,5 10.05,8q6.05,3.05 12.45,3.25q-2.9,-6 -4.35,-9q-2.45,-5.2 -4.1,-9.1q-7.6,-17.6 -11.75,-31.2q-5.3,-17.25 -6.55,-32.55q-0.9,-17.5 2.1,-32.7q3.35,-17.15 11.5,-30.5q0.85,-1.55 3,-4.4q2.1,-2.8 2.95,-4.4q-7.8,3.45 -15.2,10.95q1.9,-8.3 6.5,-14.55q5.15,-7.1 12.45,-9.7q-6.8,-9.95 -9.6,-23.4q-2.35,-11.6 -1.7,-25.35q0.95,-17.5 6.2,-36.65q4.5,-16.3 12.45,-35.05m236.65,159.5q-3.35,2.3 -6.5,6.55q-1.25,1.7 -5.05,7.8q0.75,0.15 2.5,0.45q1.35,0.45 1.85,1.55q1.6,3.35 1.5,8.8q-0.25,8.2 -0.2,9.05q1.5,-3.1 2.8,-7.45q1.4,-5.1 2.1,-7.65q1.35,-5.95 1.85,-8.95q0.8,-5.05 0.5,-9.1q0.1,-0.6 -0.35,-1.15q-0.5,-0.55 -1,0.1m-89.15,-27.8q1.25,-0.35 2.3,-1q-15.1,-2.35 -31.95,3.1q-5.95,2.15 -8.3,2.75q-4.75,1.25 -8.6,1q-0.65,0.05 -1.35,-0.4q-0.3,-0.2 -1.1,-0.9q0.95,-1.5 2.75,-2.75q1.05,-0.75 3.4,-2q3.85,-2.05 11.3,-4.55l-4.55,0.2l2.8,-1.85q-1.9,0.05 -4.2,0.75q-0.8,0.3 -4.05,1.55q-5.75,2.35 -9.15,4.75q-4.65,3.3 -6.65,7.65q-2.65,5.85 -4.4,13.1q-1.45,5.85 -2.55,13.55q-0.85,7.45 -0.9,12.6q-0.15,6.9 1,12.6q0.55,2.2 1.9,6.5q1,3.85 0.7,6.7q-0.1,3.4 -1.8,6.2q-1.8,3.05 -4.8,4.4q-3,1.4 -6.35,1.5q-3.5,0 -6.35,-1.45q-4.2,-2.1 -6.35,-6.6q-2.1,-4.55 -1,-9.05q0.45,-1.85 2.45,-4.55q2.15,-2.9 2.65,-4.45q2.2,-6.15 3.1,-13.75q0.7,-6 0.6,-14.05q-0.2,-6 -0.8,-10.05q-0.85,-5.45 -2.65,-9.7q-1.5,-3.65 -5.25,-6.7q-2.45,-1.95 -7.35,-4.65q-2.5,-1.45 -6.95,-3.35q-5.3,-2.3 -7.1,-3.2q-0.75,0.45 -1.95,0.35q-1.4,-0.1 -2,-0.1q4.8,1.6 7.7,2.9q4.15,1.85 7.15,4.1q1.25,0.8 2,2.65q-1.55,1 -3.85,1q-1.15,0 -4.05,-0.45q-2.9,-0.5 -7.45,-2.1q-5.4,-1.95 -7.35,-2.45q-5.25,-1.4 -9.65,-1.9l-1.65,0.2q2.1,0.85 6.15,2.55q3.55,1.55 6,2.95q13.35,7.7 19.1,17.6q3.45,5.8 4,15.5q0.25,6.65 -2.15,13.6q-2.15,6.25 -6.25,12.35q-2.35,0 -3.85,0.25q-2.05,0.3 -3.55,1.2q-2.3,1.3 -4.9,3.75q-1.5,1.4 -4.4,4.4q-16.85,17.75 -28.45,33.4q-1,1.55 -3.2,4.6q-1.75,2.75 -2.25,5.05q-0.35,5.5 2.45,9.4q-0.35,-3.7 -0.35,-5.55q0,-3.25 1.15,-5.4q0.9,-1.75 2.8,-3.1q1.4,-0.9 3.8,-1.9q5.7,-2.2 13.75,-3.45q1.85,-2.65 4.6,-5.75q1.45,-1.6 5.05,-5.4q3.55,-3.5 4.75,-4.7q2.75,-2.55 5.1,-4.25q2.6,3.9 7.2,6.4q4.15,2.25 9.25,3.1q3,0.45 5.95,2.6q2.05,1.5 4.75,4.45q-6.35,0.4 -7.6,0.45q7.25,0 9.8,-0.25q8.75,-0.3 20.7,0.3l-1.5,-0.55q8.05,-4.35 15,-7.6q2.15,-1 6.6,-2.9q3.85,-1.75 6.15,-3.65q1.05,-0.85 1.95,-2.25q0.45,-0.75 1.45,-2.6q10.45,7.9 21.7,21.75q0.35,0.55 1.25,1.6q0.7,1 0.55,1.9q4.5,1.5 7.8,4.25q3.7,3.1 5.2,7.15q1.4,4.1 1.05,9.3q-0.25,3.6 -1.6,9.25q3.25,-4.65 6.45,-11.65q1.35,-3.15 1.95,-5.1q0.9,-2.9 1,-5.35q0.05,-1.7 -0.9,-3.7q-0.4,-0.75 -2,-3.35q-3.45,-5.2 -8.45,-11.4q-2.35,-3 -9.1,-10.9q-9.9,-11.5 -17.35,-18.75q-2.5,-2.4 -4.35,-3.6q-2.6,-1.75 -5.15,-2.05q-1.85,-0.35 -4,0.3q-1.25,0.35 -3.8,1.45q-3.45,-7.3 -4.6,-14.95q-1.15,-8.1 0.45,-15.6q1.5,-6.65 4.95,-12.15q3.65,-5.85 9,-9.4q6.4,-4.45 15.15,-7.45q6.75,-2.3 16.4,-4.25m-105.5,70.05q-2.25,3.05 -3.2,5.15q-1.4,3.1 -1,5.95q0.3,2.5 2.15,4.85q1.45,1.75 4,3.65q-7.25,-3.3 -7.9,-8.4q-0.35,-5.4 5.95,-11.2m66.3,0q5.8,5.1 6.1,10.4q-0.05,3.1 -2.5,5.65q-2.1,2.1 -5.3,3.35q5.4,-3.8 5.95,-8.3q0.45,-2.85 -0.95,-5.95q-1.05,-2.25 -3.3,-5.15m-35,30.65q1.45,0.1 3.1,-0.4q1,-0.25 2.95,-1.05q-3.3,2.4 -6.05,2.45q-3.3,0.15 -6.55,-1.75q-2.75,-1.6 -5.2,-4.5q3.05,2.35 5.5,3.5q3.25,1.65 6.25,1.75m-14.55,-6.7q-5.45,-3.25 -12.55,-5.2q6.1,-0.7 12.55,5.2z" fill="#CFCFCF"/>
   <path id="svg_3" d="m399.95,345.55q0.2,-2.3 0,-5.5q-0.2625,-3.19375 -0.4,-5q0.17168,4.54609 -0.35,10.9q-0.3,3.75 -0.95,11.35q-1.8,18.2 -3.35,30.05q-2.25,16.35 -5.25,29.75q-2.15,8.45 -3.4,12q-2.35,6.6 -5.9,10.85q-7.85,9.8 -21.85,19.4q-5.35,3.5 -8.9,5.35q-5.1,2.65 -9.65,3.8q-5.15,1.15 -6.65,-1.45q-0.7,-1.4 -0.4,-3.35q0.1,-1.05 0.85,-3.35q0.8,-2.15 1.95,-5.5q1.6,-4.9 1.8,-5.5q1.35,-5.65 1.6,-9.25q0.35,-5.2 -1.05,-9.3q-1.5,-4.05 -5.2,-7.15q-3.3,-2.75 -7.8,-4.25q-5.15,-2 -11.95,-3.05q-4,-0.6 -12.25,-1.3q-15.25,-1.15 -28.95,-1.35q-11.95,-0.6 -20.7,-0.3q-2.55,0.25 -9.8,0.25q-22.4,0.55 -39.05,3.1q-8.05,1.25 -13.75,3.45q-2.4,1 -3.8,1.9q-1.9,1.35 -2.8,3.1q-1.15,2.15 -1.15,5.4q0,1.85 0.35,5.55q1.65,5.8 5.3,17.15q1.05,3.9 1.3,5.45q0.45,3.15 -0.25,5.55q-0.65,1.6 -2.4,2.4q-1.45,0.65 -3.4,0.65q-6.4,-0.2 -12.45,-3.25q-5.75,-3 -10.05,-8q-5.8,-6.6 -9.85,-15.95q-3.35,-7.7 -5.75,-17.95q-0.6,-2.2 -0.8,-5.95q-0.3,-4.45 -0.55,-5.95q-0.1,3.55 0.55,8.9q1,8.45 1.05,8.9q1.7,12.4 4.05,19.95q1.15,3.9 3.55,8.55q0.7,1.3 4.4,8.1q18.7,32.3 42.15,59q7.55,8.25 13.75,14.05q7.75,7.25 15.2,12.4q13.5,9.25 25.45,10.45q9.25,1.35 19.05,-0.45q9.3,-1.7 18.1,-6.15q11.85,-5.9 23.55,-16.6q8.7,-7.9 19.95,-21q19.25,-20.6 23.6,-25.65q12.95,-14.85 21.05,-27.65q9.15,-14.45 14.1,-29.1q5.5,-16.15 5.55,-31.75q-0.1,-1.1 0.55,-1.8q0.65,-0.7 1.7,-0.9q0.45,-16.95 0.45,-23.1q0.15,-3.75 -0.05,-11.45q-0.2,-7.5 -0.05,-11.4q-0.35,-1.65 -0.25,-4q0.15,-2.7 0.2,-4.05m-87.25,83.5q4.7,1.65 7.75,4.5q4.6,4.25 5.25,12.45q0.7,9.3 -1.55,18.9q-2.15,9.2 -6.8,17.7q-7.3,13.3 -17.95,20q-4.85,3 -10.2,4.05q-5.7,1.1 -10.9,-0.25q-5.85,-1.6 -8.25,-5.05q-0.85,-1.15 -0.7,-2.6q0.15,-1.5 1.25,-2.3q0.95,-0.75 3.4,-1.8q2.3,-1 3.3,-1.85q4.5,-3.3 8.2,-8.8q2.85,-4.25 5.65,-10.6q-8.9,4.1 -18.25,5.95q-9.7,1.95 -19.2,1.35q-8.7,-0.5 -16.8,-2.8q-8.5,-2.35 -15.75,-6.5q-1,3.6 0.45,7.4q1.3,3.3 4.2,6.2q1.25,1.3 6.75,6.2q4.2,3.7 6.2,6.65q1.25,1.9 1.55,3.65q0.35,2.25 -1,3.65q-1.8,1.6 -4.7,1.85q-2,0.2 -5.25,-0.25q-4.6,-0.8 -8.65,-2.75q-4.25,-2.05 -7.45,-5.2q-2.6,-2.65 -4.85,-6.6q-1.65,-2.85 -3.65,-7.45q-8.75,-21.1 -7.4,-39.35q0.6,-5.15 1.7,-8.35q1.65,-4.5 4.75,-6.9q3.2,-2.4 7.85,-3.75q3.35,-0.95 8.6,-1.55q8.6,-0.85 18.75,0q7.9,0.6 18.6,2.4q21.15,-1.15 23.2,-1.25q13.25,-0.35 23.2,1q5.25,0.8 8.7,2.05z" fill="#797979"/>
   <path id="svg_4" d="m340.85,91.5q-5.3,-2.5 -11.25,-3.4q-5.8,-0.85 -11.7,-0.15q0.9,2.6 4.35,11q2.8,6.8 4,11.15q-2.75,-3.6 -7.1,-10.5q-4.8,-7.5 -7.05,-10.6l-1.45,0.2l0.6,1.3q-6.1,-4.65 -13.85,-6.4q-7.8,-1.8 -15.35,-0.35q-2.95,0.45 -8.05,2.1q-5.6,1.8 -8.05,2.25q-6.55,1.4 -11.7,1.35q-6.45,0 -11.5,-2.25l4.35,3.8q-6.9,-3.4 -14.05,-4.45q-7.65,-1.1 -14.6,0.75q1.8,3.25 5.4,6.05q2.5,2 6.95,4.45q6,3.15 13.4,5.2q6.3,1.75 14.15,2.9q15.85,2.3 35.4,1.4q-15.45,2.3 -33.4,1.3q-31.8,-2.2 -55.45,-14.25q-6.5,6.1 -9.75,9.15q-5.8,5.25 -10.25,8.6q1.65,0.1 3.85,-0.1q1.25,-0.05 3.8,-0.35q10.75,-0.7 22.15,1q-1.65,0.1 -6.05,-0.05q-8.5,-0.3 -16.3,1.75q-8.3,2.1 -14.85,6.65q-7.25,4.85 -12.75,12.65q-5.05,7.1 -8.2,16q-1.2,3.5 -1.65,5.2q-0.8,2.95 -1,5.3q2.2,-6.35 4.25,-10.6q2.65,-5.6 6,-9.65q4.5,-5.8 11.15,-9.4q6.6,-3.55 13.95,-4.15q9.8,-0.75 20.6,2.4q8.95,2.6 19.25,8.05q13.8,7.4 31.15,8.45q15.6,0.95 32.25,-3.2q-8.7,1.4 -18.05,-0.65q-8.65,-1.85 -16.95,-6.45q-3.5,-2 -3.9,-2.2q-2.2,-1.35 -3.6,-2.75q1.35,0.45 4.25,1.65q2.7,1.15 4.25,1.6q12.1,4.15 25.3,4.45q13,0.25 25.5,-3.35q1.5,-0.4 12.1,-4.1q7.25,-2.65 12.35,-2.8q6.45,-0.45 12.75,1.9q6.1,2.25 11,6.7q11.7,10.5 17.9,29.75q3.65,-7.65 9.65,-9.3q3.35,-0.9 6.9,-0.45q3.6,0.45 6.5,2.2q1.8,-19 -6.95,-28.4q-5.45,5.35 -9.85,8.9q-7.85,-9.45 -13.65,-18.95q-2,-3.4 -2.05,-3.5q-1.1,-2.1 -1.4,-3.85l-0.8,-1.4l-0.85,0.5q-4.15,-6.65 -9.55,-11.65q-5.8,-5.4 -12.5,-8.4z" fill="#333333"/>
  </g>
 </defs>
 <g>
  <title>background</title>
  <rect fill="none" id="canvas_background" height="600" width="600" y="-1" x="-1"/>
 </g>
 <g>
  <title>Layer 1</title>
  <g id="svg_5">
   <use x="11.664848" y="-46.028618" id="svg_6" xlink:href="#Layer0_0_FILL"/>
  </g>
 </g>
</svg>
