
<svg xmlns="http://www.w3.org/2000/svg" version="1.1" xmlns:xlink="http://www.w3.org/1999/xlink" preserveAspectRatio="none" x="0px" y="0px" width="1280px" height="720px" viewBox="0 0 1280 720">
<defs>
<g id="Layer0_0_FILL">
<path fill="#000000" stroke="none" d="
M 218.45 87.3
Q 211.3 89.1 204.9 94.35 228.55 106.4 260.35 108.6 278.3 109.6 293.75 107.3 274.2 108.2 258.35 105.9 250.5 104.75 244.2 103 236.8 100.95 230.8 97.8 226.35 95.35 223.85 93.35 220.25 90.55 218.45 87.3
M 317.9 87.95
Q 314.35 88.4 312.1 89 314.35 92.1 319.15 99.6 323.5 106.5 326.25 110.1 325.05 105.75 322.25 98.95 318.8 90.55 317.9 87.95
M 346.5 129.35
Q 340.2 127 333.75 127.45 328.65 127.6 321.4 130.25 310.8 133.95 309.3 134.35 296.8 137.95 283.8 137.7 270.6 137.4 258.5 133.25 256.95 132.8 254.25 131.65 251.35 130.45 250 130 251.4 131.4 253.6 132.75 254 132.95 257.5 134.95 265.8 139.55 274.45 141.4 283.8 143.45 292.5 142.05 275.85 146.2 260.25 145.25 242.9 144.2 229.1 136.8 218.8 131.35 209.85 128.75 199.05 125.6 189.25 126.35 181.9 126.95 175.3 130.5 168.65 134.1 164.15 139.9 160.8 143.95 158.15 149.55 156.1 153.8 153.9 160.15 154.1 157.8 154.9 154.85 155.35 153.15 156.55 149.65 159.7 140.75 164.75 133.65 170.25 125.85 177.5 121 184.05 116.45 192.35 114.35 200.15 112.3 208.65 112.6 213.05 112.75 214.7 112.65 203.3 110.95 192.55 111.65 190 111.95 188.75 112 186.55 112.2 184.9 112.1 179.65 115.65 175 114.7
L 177.3 116
Q 172.35 116.4 167.9 118.2 163.25 120 159.65 123.1 156.15 126.15 154 130.7 152 134.95 151.5 139.85 150.95 145 150.2 148.5 149.2 153.15 147.55 156.75 145.3 161.7 141.65 163.4
L 144.95 162.9
Q 137.7 181.85 133 203.05 125.9 234.9 126.8 264.3 127.35 287.75 132.25 318.8 129 316.95 125.65 316.95 121.75 316.85 119.3 319.25 116.5 322.05 115.45 326.7 114.7 329.95 114.65 335.2 114.5 344.15 118.15 354.15 120.95 361.7 126.7 371.45 128.6 374.85 132.55 381.6 135.7 387.65 136.15 392.65
L 137.3 393.65
Q 137.4 404.65 138.35 417.6 139.35 429.2 140.5 436 142.25 446.15 145.3 453.9 147.9 459.9 154.05 470.4 154.45 473.6 155.5 480.1 156.25 485.8 155.75 489.9 155.2 495.6 152.3 497.95 151.35 498.7 151.55 500.05 151.75 501.15 152.6 502.1 170.75 525.4 190.35 548.2 203.75 563.55 212.3 572.65 224.6 585.75 235.75 595.5 242 600.75 245.1 602.95 250.6 606.75 255.6 608.45 258.95 609.55 262.9 608.25 265.4 607.4 269.55 604.95 276.05 600.9 283.6 594.95 287.95 591.5 296.9 583.9 317.6 565.9 341.35 542.75 358.3 526.25 384.25 499.9 386.5 497.85 386.05 495.7 384.25 487.65 383.15 481.2 382.25 475.4 382.05 472.7 381.65 467.95 382.25 464.25 391.65 448.85 396.45 434.2 398.85 435.4 401.45 434.45 403.95 433.55 405.25 431.2 407.45 427.25 408.35 421.45 408.55 420.4 409.35 411.2 409.8 408.05 411.25 404.25 411.9 402.55 414.15 397.6 419.1 387.45 421.55 382.4 425.9 373.35 428.35 366.85 431.3 359 432.65 352.6 434.35 344.7 433.95 337.7 433.7 333.9 432.35 330.9 430.7 327.45 427.75 325.85 421.5 322.6 411.8 326.5 415.15 315.85 417.25 303 420.65 281.9 419 262.3 417.2 240.9 409.45 222.75
L 411.25 223.25
Q 413.7 199.5 410.45 181.75 408.9 173.95 406.6 168.8 403.5 162 398.45 158.25 395.55 156.5 391.95 156.05 388.4 155.6 385.05 156.5 379.05 158.15 375.4 165.8 369.2 146.55 357.5 136.05 352.6 131.6 346.5 129.35
M 331.1 171.4
Q 336.4 171.2 341.55 173.4 346.55 175.45 350.45 179.3 355.8 184.35 359.35 192.8
L 360.05 190.1
Q 369.2 196.55 374.9 206.15 380.8 216.1 381.35 226.95 381.8 230.8 380.8 237.95 379.75 245.35 379.95 248.85 380.3 256.6 383.35 266.6 385.1 272.35 389.15 283.75 398.5 310 399.55 334.55
L 399.55 335.05
Q 399.6875 336.85625 399.95 340.05 400.15 343.25 399.95 345.55 399.9 346.9 399.75 349.6 399.65 351.95 400 353.6 400.55 344.95 404.1 336.15 404.45 335.05 405.75 334.25 406.5 333.8 408.05 333 412.3 330.85 415.05 329.95 419.1 328.65 422.6 328.85 424.3 328.85 425.8 329.8 427.3 330.75 428.1 332.25 429.25 334.45 429.5 337.5 429.65 339.3 429.55 343 429.15 349.25 427.25 356.15 425.65 361.85 422.85 368.8 426.35 358.65 427.85 347.5 428.15 344.2 428.2 342.65 428.2 339.9 427.6 337.85 427.25 336.55 426.3 335.65 425.25 334.7 424 334.65 421.8 334.4 419.55 335.75 418 336.7 415.95 338.8 410.7 344.55 405.9 353.2 405 354.3 405.75 355.65 406.45 356.95 407.8 356.75 408.8 356.65 409.6 355.55 410 354.9 410.75 353.6 414.55 347.5 415.8 345.8 418.95 341.55 422.3 339.25 422.8 338.6 423.3 339.15 423.75 339.7 423.65 340.3 423.95 344.35 423.15 349.4 422.65 352.4 421.3 358.35 420.6 360.9 419.2 366 417.9 370.35 416.4 373.45
L 416.45 373.85
Q 414.35 378.85 413.4 380.7 411.5 384.5 409.35 387 408.7 387.7 408.45 388.05 407.9 388.7 408 389.35 407.85 390.45 408.9 391.2 409.95 391.9 410.95 391.4 411.7 391.05 412.4 390.2 412.8 389.75 413.55 388.75 409.95 396 408.65 399 406.15 404.8 405.1 409.7 404.7 412.95 404.2 419.5 403.5 425.2 401.55 428.8 401.05 429.9 399.95 430.3 398.9 430.65 397.8 430.1 402 413.8 401.75 401.6 401.85 400.15 399.65 399.55 398.6 399.75 397.95 400.45 397.3 401.15 397.4 402.25 397.35 417.85 391.85 434 386.9 448.65 377.75 463.1 369.65 475.9 356.7 490.75 352.35 495.8 333.1 516.4 321.85 529.5 313.15 537.4 301.45 548.1 289.6 554 280.8 558.45 271.5 560.15 261.7 561.95 252.45 560.6 240.5 559.4 227 550.15 219.55 545 211.8 537.75 205.6 531.95 198.05 523.7 174.6 497 155.9 464.7 152.2 457.9 151.5 456.6 149.1 451.95 147.95 448.05 145.6 440.5 143.9 428.1 143.85 427.65 142.85 419.2 142.2 413.85 142.3 410.3 141.2 391.55 142.15 363.55 142.15 362.3 140.95 361.75 139.9 361.2 138.6 361.5
L 138.6 361.9
Q 138 362.55 137.8 363.6 137.8 363.7 137.65 365.55 137.6 368.15 137.4 373.4 137.3 378.1 137.25 381.25 134.35 375.5 132.1 372.15 133.5 372.7 134.75 371.8 136.05 370.85 135.5 369.35 128.7 360.5 126 345.45 125.5 342 125.45 340.15 125.35 337.25 126.1 334.95 127.45 334.65 128.65 335.8 129.35 336.5 130.35 338.15 130.9 339 131.6 341.15 132.45 342.95 133.9 343.25 135.35 342.6 136.05 341.55 136.55 344.8 137.6 351.15 138.4 356.7 138.6 360.85 138.6 356.6 138 342.25 137.5 330.7 137.85 323.65 137.6 316.15 138.75 304.2 139.4 298.75 139.95 296.1 140.9 291.65 142.6 288.4 144.15 285.55 144.5 281.35 144.6 280 144.65 273.95 143.65 256.6 143.4 247.9 142.85 232.65 144.7 221.9 146.05 213.75 149 207.2 152.35 199.65 157.65 194.6 162.2 190.15 169.05 187.05
L 168.25 189.2
Q 170.4 184.8 175.65 182.3 179.85 180.3 185.65 179.75 194.45 179.1 205.95 182.1 219.8 186 228.6 187.7 241.2 190.05 251.8 189.9 259.4 189.7 266.05 187.7 273.35 185.55 278.9 181.25 277.75 183.2 276.9 184.7 284.65 185.7 290.8 185.85 298.3 186 304.75 184.8 313.7 183.1 317.25 178.25 319.55 175.1 323.4 173.3 327 171.6 331.1 171.4
M 123.45 321.7
Q 124.75 321.15 126.1 321.35 130 321.95 133.05 324.4 134.8 332.95 135.5 339.5 134.45 335.15 131.15 332.15 129.6 330.75 127.55 330.5 125.35 330.2 123.7 331.4 121.4 333.05 121.1 337.8 120.9 343 122.25 349.25 123.15 353.45 125.4 360.3 122.1 352.85 120.65 347.25 118.65 339.95 119 333.55 119.3 330 119.65 328.3 120.2 325.4 121.45 323.4 122.2 322.25 123.45 321.7
M 239.15 592.7
Q 235 589.1 227.5 581.9 217.1 571.65 205.65 558.9 196.6 548.9 184.85 534.95 171.5 519.1 156.55 500.05 158.45 497.45 159.4 494.45 160.25 491.2 160.3 487.2 160.35 484.3 160 479.85 163.75 486.2 168.85 493.5 172.5 498.7 178.4 506.7 192.1 524.8 205.3 537.75 212.8 545.05 219.35 550.1 227.3 556.25 235.15 560.1 247.4 566.15 263.4 565.6 279.55 564.95 295.4 556.05 309.2 548.2 323.1 534.05 326.7 530.45 332.7 523.7 339.35 516.15 342.2 513.2 353.8 500.95 360.7 493 370.55 481.6 377.6 471.35 377.8 476 378.85 482.05 379 482.95 380.85 492.65 380.95 493.35 381.5 495 381.75 496.4 380.8 497.05 337.35 541.6 303.4 572.4 288.9 585.25 279.6 592.5 273.45 597.15 271.15 598.7 266.3 602.05 262.05 603.85 259.8 604.95 256.85 604.2 254.95 603.65 251.95 602.05 245.85 598.4 239.15 592.7
M 228.6 315.8
Q 231.5 316.25 232.65 316.25 234.95 316.25 236.5 315.25 235.75 313.4 234.5 312.6 231.5 310.35 227.35 308.5 224.45 307.2 219.65 305.6 220.25 305.6 221.65 305.7 222.85 305.8 223.6 305.35 216.55 300.9 208.65 299 200.5 297 192.55 297.95 190.7 298.1 188 298.7 183.65 299.7 183.55 299.7
L 183.05 298.9
Q 180.3 299.55 178.3 300.2 171 302.8 165.85 309.9 161.25 316.15 159.35 324.45 166.75 316.95 174.55 313.5 181.2 310.35 189.05 309.35 196.35 308.4 204.15 309.35 208.55 309.85 213.8 311.25 215.75 311.75 221.15 313.7 225.7 315.3 228.6 315.8
M 231.85 400.25
Q 238.95 402.2 244.4 405.45 237.95 399.55 231.85 400.25
M 262.05 411.75
Q 260.4 412.25 258.95 412.15 255.95 412.05 252.7 410.4 250.25 409.25 247.2 406.9 249.65 409.8 252.4 411.4 255.65 413.3 258.95 413.15 261.7 413.1 265 410.7 263.05 411.5 262.05 411.75
M 300.05 391.9
Q 299.75 386.6 293.95 381.5 296.2 384.4 297.25 386.65 298.65 389.75 298.2 392.6 297.65 397.1 292.25 400.9 295.45 399.65 297.55 397.55 300 395 300.05 391.9
M 224.45 386.65
Q 225.4 384.55 227.65 381.5 221.35 387.3 221.7 392.7 222.35 397.8 229.6 401.1 227.05 399.2 225.6 397.45 223.75 395.1 223.45 392.6 223.05 389.75 224.45 386.65
M 335.45 310.45
Q 343.8 311.5 351.5 315.4 359.05 319.2 365.1 325.2 363.45 318.8 360.2 313.55 356.7 307.85 351.7 304.35 346.35 300.55 338.85 299.6
L 340.75 301.1
Q 330.85 297.7 319.95 298.85 309.25 299.9 299.85 305.05
L 297.05 306.9 301.6 306.7
Q 294.15 309.2 290.3 311.25 287.95 312.5 286.9 313.25 285.1 314.5 284.15 316 284.95 316.7 285.25 316.9 285.95 317.35 286.6 317.3 290.45 317.55 295.2 316.3 297.55 315.7 303.5 313.55 320.35 308.1 335.45 310.45
M 403.1 369.25
Q 402.2 369.1 401.55 369.65 400.7 370.15 400.7 371.35 400.7 372.45 401.35 373.25 403.3 376.15 404 379.4 404.7 382.85 403.8 386 403.65 386.65 403 388.05 402.35 389.3 402.2 390 402.1 391.5 403.65 392.1 405.2 392.75 406.1 391.45 409.2 386.75 408.6 380.6 408.05 374.75 404.5 370.1 403.95 369.45 403.1 369.25
M 381.65 138.75
Q 386.05 135.2 391.5 129.85 389.2 127.4 384.85 125.25 379.9 123.1 377.55 121.8 369.55 117.55 364.55 112.45 364.85 114.2 365.95 116.3 366 116.4 368 119.8 373.8 129.3 381.65 138.75 Z"/>

<path fill="#CFCFCF" stroke="none" d="
M 178.55 518.75
Q 189.35 531.7 198.35 541.4 209.3 553.2 219.7 562.6 227.15 569.25 233.3 573.8 240.9 579.45 248.2 583.2 261.05 589.6 270.45 587.1 276.9 585.4 283.9 581.55 289.05 578.65 296.2 573.6 307.05 565.75 318.85 555.1 327.75 547 339.9 534.8 360.05 514.25 379.85 490.65
L 380.85 492.65
Q 379 482.95 378.85 482.05 377.8 476 377.6 471.35 370.55 481.6 360.7 493 353.8 500.95 342.2 513.2 339.35 516.15 332.7 523.7 326.7 530.45 323.1 534.05 309.2 548.2 295.4 556.05 279.55 564.95 263.4 565.6 247.4 566.15 235.15 560.1 227.3 556.25 219.35 550.1 212.8 545.05 205.3 537.75 192.1 524.8 178.4 506.7 172.5 498.7 168.85 493.5 163.75 486.2 160 479.85 160.35 484.3 160.3 487.2 160.25 491.2 159.4 494.45 169.05 507.3 178.55 518.75
M 185.65 179.75
Q 179.85 180.3 175.65 182.3 170.4 184.8 168.25 189.2
L 169.05 187.05
Q 162.2 190.15 157.65 194.6 152.35 199.65 149 207.2 146.05 213.75 144.7 221.9 142.85 232.65 143.4 247.9 143.65 256.6 144.65 273.95 144.6 280 144.5 281.35 144.15 285.55 142.6 288.4 140.9 291.65 139.95 296.1 139.4 298.75 138.75 304.2 137.6 316.15 137.85 323.65 137.5 330.7 138 342.25 138.6 356.6 138.6 360.85
L 138.6 361.5
Q 139.9 361.2 140.95 361.75 142.15 362.3 142.15 363.55 141.2 391.55 142.3 410.3 142.55 411.8 142.85 416.25 143.05 420 143.65 422.2 146.05 432.45 149.4 440.15 153.45 449.5 159.25 456.1 163.55 461.1 169.3 464.1 175.35 467.15 181.75 467.35 178.85 461.35 177.4 458.35 174.95 453.15 173.3 449.25 165.7 431.65 161.55 418.05 156.25 400.8 155 385.5 154.1 368 157.1 352.8 160.45 335.65 168.6 322.3 169.45 320.75 171.6 317.9 173.7 315.1 174.55 313.5 166.75 316.95 159.35 324.45 161.25 316.15 165.85 309.9 171 302.8 178.3 300.2 171.5 290.25 168.7 276.8 166.35 265.2 167 251.45 167.95 233.95 173.2 214.8 177.7 198.5 185.65 179.75
M 422.3 339.25
Q 418.95 341.55 415.8 345.8 414.55 347.5 410.75 353.6 411.5 353.75 413.25 354.05 414.6 354.5 415.1 355.6 416.7 358.95 416.6 364.4 416.35 372.6 416.4 373.45 417.9 370.35 419.2 366 420.6 360.9 421.3 358.35 422.65 352.4 423.15 349.4 423.95 344.35 423.65 340.3 423.75 339.7 423.3 339.15 422.8 338.6 422.3 339.25
M 333.15 311.45
Q 334.4 311.1 335.45 310.45 320.35 308.1 303.5 313.55 297.55 315.7 295.2 316.3 290.45 317.55 286.6 317.3 285.95 317.35 285.25 316.9 284.95 316.7 284.15 316 285.1 314.5 286.9 313.25 287.95 312.5 290.3 311.25 294.15 309.2 301.6 306.7
L 297.05 306.9 299.85 305.05
Q 297.95 305.1 295.65 305.8 294.85 306.1 291.6 307.35 285.85 309.7 282.45 312.1 277.8 315.4 275.8 319.75 273.15 325.6 271.4 332.85 269.95 338.7 268.85 346.4 268 353.85 267.95 359 267.8 365.9 268.95 371.6 269.5 373.8 270.85 378.1 271.85 381.95 271.55 384.8 271.45 388.2 269.75 391 267.95 394.05 264.95 395.4 261.95 396.8 258.6 396.9 255.1 396.9 252.25 395.45 248.05 393.35 245.9 388.85 243.8 384.3 244.9 379.8 245.35 377.95 247.35 375.25 249.5 372.35 250 370.8 252.2 364.65 253.1 357.05 253.8 351.05 253.7 343 253.5 337 252.9 332.95 252.05 327.5 250.25 323.25 248.75 319.6 245 316.55 242.55 314.6 237.65 311.9 235.15 310.45 230.7 308.55 225.4 306.25 223.6 305.35 222.85 305.8 221.65 305.7 220.25 305.6 219.65 305.6 224.45 307.2 227.35 308.5 231.5 310.35 234.5 312.6 235.75 313.4 236.5 315.25 234.95 316.25 232.65 316.25 231.5 316.25 228.6 315.8 225.7 315.3 221.15 313.7 215.75 311.75 213.8 311.25 208.55 309.85 204.15 309.35
L 202.5 309.55
Q 204.6 310.4 208.65 312.1 212.2 313.65 214.65 315.05 228 322.75 233.75 332.65 237.2 338.45 237.75 348.15 238 354.8 235.6 361.75 233.45 368 229.35 374.1 227 374.1 225.5 374.35 223.45 374.65 221.95 375.55 219.65 376.85 217.05 379.3 215.55 380.7 212.65 383.7 195.8 401.45 184.2 417.1 183.2 418.65 181 421.7 179.25 424.45 178.75 426.75 178.4 432.25 181.2 436.15 180.85 432.45 180.85 430.6 180.85 427.35 182 425.2 182.9 423.45 184.8 422.1 186.2 421.2 188.6 420.2 194.3 418 202.35 416.75 204.2 414.1 206.95 411 208.4 409.4 212 405.6 215.55 402.1 216.75 400.9 219.5 398.35 221.85 396.65 224.45 400.55 229.05 403.05 233.2 405.3 238.3 406.15 241.3 406.6 244.25 408.75 246.3 410.25 249 413.2 242.65 413.6 241.4 413.65 248.65 413.65 251.2 413.4 259.95 413.1 271.9 413.7
L 270.4 413.15
Q 278.45 408.8 285.4 405.55 287.55 404.55 292 402.65 295.85 400.9 298.15 399 299.2 398.15 300.1 396.75 300.55 396 301.55 394.15 312 402.05 323.25 415.9 323.6 416.45 324.5 417.5 325.2 418.5 325.05 419.4 329.55 420.9 332.85 423.65 336.55 426.75 338.05 430.8 339.45 434.9 339.1 440.1 338.85 443.7 337.5 449.35 340.75 444.7 343.95 437.7 345.3 434.55 345.9 432.6 346.8 429.7 346.9 427.25 346.95 425.55 346 423.55 345.6 422.8 344 420.2 340.55 415 335.55 408.8 333.2 405.8 326.45 397.9 316.55 386.4 309.1 379.15 306.6 376.75 304.75 375.55 302.15 373.8 299.6 373.5 297.75 373.15 295.6 373.8 294.35 374.15 291.8 375.25 288.35 367.95 287.2 360.3 286.05 352.2 287.65 344.7 289.15 338.05 292.6 332.55 296.25 326.7 301.6 323.15 308 318.7 316.75 315.7 323.5 313.4 333.15 311.45
M 227.65 381.5
Q 225.4 384.55 224.45 386.65 223.05 389.75 223.45 392.6 223.75 395.1 225.6 397.45 227.05 399.2 229.6 401.1 222.35 397.8 221.7 392.7 221.35 387.3 227.65 381.5
M 293.95 381.5
Q 299.75 386.6 300.05 391.9 300 395 297.55 397.55 295.45 399.65 292.25 400.9 297.65 397.1 298.2 392.6 298.65 389.75 297.25 386.65 296.2 384.4 293.95 381.5
M 258.95 412.15
Q 260.4 412.25 262.05 411.75 263.05 411.5 265 410.7 261.7 413.1 258.95 413.15 255.65 413.3 252.4 411.4 249.65 409.8 247.2 406.9 250.25 409.25 252.7 410.4 255.95 412.05 258.95 412.15
M 244.4 405.45
Q 238.95 402.2 231.85 400.25 237.95 399.55 244.4 405.45 Z"/>

<path fill="#797979" stroke="none" d="
M 399.95 345.55
Q 400.15 343.25 399.95 340.05 399.6875 336.85625 399.55 335.05 399.7216796875 339.59609375 399.2 345.95 398.9 349.7 398.25 357.3 396.45 375.5 394.9 387.35 392.65 403.7 389.65 417.1 387.5 425.55 386.25 429.1 383.9 435.7 380.35 439.95 372.5 449.75 358.5 459.35 353.15 462.85 349.6 464.7 344.5 467.35 339.95 468.5 334.8 469.65 333.3 467.05 332.6 465.65 332.9 463.7 333 462.65 333.75 460.35 334.55 458.2 335.7 454.85 337.3 449.95 337.5 449.35 338.85 443.7 339.1 440.1 339.45 434.9 338.05 430.8 336.55 426.75 332.85 423.65 329.55 420.9 325.05 419.4 319.9 417.4 313.1 416.35 309.1 415.75 300.85 415.05 285.6 413.9 271.9 413.7 259.95 413.1 251.2 413.4 248.65 413.65 241.4 413.65 219 414.2 202.35 416.75 194.3 418 188.6 420.2 186.2 421.2 184.8 422.1 182.9 423.45 182 425.2 180.85 427.35 180.85 430.6 180.85 432.45 181.2 436.15 182.85 441.95 186.5 453.3 187.55 457.2 187.8 458.75 188.25 461.9 187.55 464.3 186.9 465.9 185.15 466.7 183.7 467.35 181.75 467.35 175.35 467.15 169.3 464.1 163.55 461.1 159.25 456.1 153.45 449.5 149.4 440.15 146.05 432.45 143.65 422.2 143.05 420 142.85 416.25 142.55 411.8 142.3 410.3 142.2 413.85 142.85 419.2 143.85 427.65 143.9 428.1 145.6 440.5 147.95 448.05 149.1 451.95 151.5 456.6 152.2 457.9 155.9 464.7 174.6 497 198.05 523.7 205.6 531.95 211.8 537.75 219.55 545 227 550.15 240.5 559.4 252.45 560.6 261.7 561.95 271.5 560.15 280.8 558.45 289.6 554 301.45 548.1 313.15 537.4 321.85 529.5 333.1 516.4 352.35 495.8 356.7 490.75 369.65 475.9 377.75 463.1 386.9 448.65 391.85 434 397.35 417.85 397.4 402.25 397.3 401.15 397.95 400.45 398.6 399.75 399.65 399.55 400.1 382.6 400.1 376.45 400.25 372.7 400.05 365 399.85 357.5 400 353.6 399.65 351.95 399.75 349.6 399.9 346.9 399.95 345.55
M 312.7 429.05
Q 317.4 430.7 320.45 433.55 325.05 437.8 325.7 446 326.4 455.3 324.15 464.9 322 474.1 317.35 482.6 310.05 495.9 299.4 502.6 294.55 505.6 289.2 506.65 283.5 507.75 278.3 506.4 272.45 504.8 270.05 501.35 269.2 500.2 269.35 498.75 269.5 497.25 270.6 496.45 271.55 495.7 274 494.65 276.3 493.65 277.3 492.8 281.8 489.5 285.5 484 288.35 479.75 291.15 473.4 282.25 477.5 272.9 479.35 263.2 481.3 253.7 480.7 245 480.2 236.9 477.9 228.4 475.55 221.15 471.4 220.15 475 221.6 478.8 222.9 482.1 225.8 485 227.05 486.3 232.55 491.2 236.75 494.9 238.75 497.85 240 499.75 240.3 501.5 240.65 503.75 239.3 505.15 237.5 506.75 234.6 507 232.6 507.2 229.35 506.75 224.75 505.95 220.7 504 216.45 501.95 213.25 498.8 210.65 496.15 208.4 492.2 206.75 489.35 204.75 484.75 196 463.65 197.35 445.4 197.95 440.25 199.05 437.05 200.7 432.55 203.8 430.15 207 427.75 211.65 426.4 215 425.45 220.25 424.85 228.85 424 239 424.85 246.9 425.45 257.6 427.25 278.75 426.1 280.8 426 294.05 425.65 304 427 309.25 427.8 312.7 429.05 Z"/>

<path fill="#333333" stroke="none" d="
M 340.85 91.5
Q 335.55 89 329.6 88.1 323.8 87.25 317.9 87.95 318.8 90.55 322.25 98.95 325.05 105.75 326.25 110.1 323.5 106.5 319.15 99.6 314.35 92.1 312.1 89
L 310.65 89.2 311.25 90.5
Q 305.15 85.85 297.4 84.1 289.6 82.3 282.05 83.75 279.1 84.2 274 85.85 268.4 87.65 265.95 88.1 259.4 89.5 254.25 89.45 247.8 89.45 242.75 87.2
L 247.1 91
Q 240.2 87.6 233.05 86.55 225.4 85.45 218.45 87.3 220.25 90.55 223.85 93.35 226.35 95.35 230.8 97.8 236.8 100.95 244.2 103 250.5 104.75 258.35 105.9 274.2 108.2 293.75 107.3 278.3 109.6 260.35 108.6 228.55 106.4 204.9 94.35 198.4 100.45 195.15 103.5 189.35 108.75 184.9 112.1 186.55 112.2 188.75 112 190 111.95 192.55 111.65 203.3 110.95 214.7 112.65 213.05 112.75 208.65 112.6 200.15 112.3 192.35 114.35 184.05 116.45 177.5 121 170.25 125.85 164.75 133.65 159.7 140.75 156.55 149.65 155.35 153.15 154.9 154.85 154.1 157.8 153.9 160.15 156.1 153.8 158.15 149.55 160.8 143.95 164.15 139.9 168.65 134.1 175.3 130.5 181.9 126.95 189.25 126.35 199.05 125.6 209.85 128.75 218.8 131.35 229.1 136.8 242.9 144.2 260.25 145.25 275.85 146.2 292.5 142.05 283.8 143.45 274.45 141.4 265.8 139.55 257.5 134.95 254 132.95 253.6 132.75 251.4 131.4 250 130 251.35 130.45 254.25 131.65 256.95 132.8 258.5 133.25 270.6 137.4 283.8 137.7 296.8 137.95 309.3 134.35 310.8 133.95 321.4 130.25 328.65 127.6 333.75 127.45 340.2 127 346.5 129.35 352.6 131.6 357.5 136.05 369.2 146.55 375.4 165.8 379.05 158.15 385.05 156.5 388.4 155.6 391.95 156.05 395.55 156.5 398.45 158.25 400.25 139.25 391.5 129.85 386.05 135.2 381.65 138.75 373.8 129.3 368 119.8 366 116.4 365.95 116.3 364.85 114.2 364.55 112.45
L 363.75 111.05 362.9 111.55
Q 358.75 104.9 353.35 99.9 347.55 94.5 340.85 91.5 Z"/>
</g>
</defs>

<g transform="matrix( 1, 0, 0, 1, 0,0) ">
<use xlink:href="#Layer0_0_FILL"/>
</g>
</svg>
